<svg width="181" height="71" fill="none" xmlns="http://www.w3.org/2000/svg"><path fill-rule="evenodd" clip-rule="evenodd" d="M47.09 25.142v25.142h7.92V0h-7.92v25.142zm104.074 0v25.142h7.906l.049-10.148c.054-11.166.025-10.788.952-12.597 1.187-2.318 3.631-3.723 6.794-3.903 2.642-.15 4.324.739 5.373 2.84.82 1.642.843 2.015.843 13.427v10.381H181V39.592c0-11.743-.038-12.408-.848-14.868-.711-2.165-1.577-3.657-2.962-5.111-4.184-4.392-11.825-5.076-17.507-1.568l-.601.37V0h-7.918v25.142zM19.87 1.768a23.247 23.247 0 00-10.286 4.31c-10.799 8.04-12.826 25.192-4.27 36.13 3.493 4.465 8.444 7.38 14.344 8.444 1.652.298 5.895.338 7.565.072 3.929-.627 7.42-2.023 10.531-4.211 1.223-.86 4.387-3.716 4.387-3.959 0-.065-1.218-1.356-2.706-2.869l-2.707-2.75-1.43 1.38c-3.607 3.481-7.375 4.938-12.317 4.761-1.474-.052-2.456-.163-3.218-.362-3.898-1.02-6.83-3.103-9.114-6.476-2.52-3.72-3.445-9.604-2.284-14.52 1.92-8.13 8.808-13.167 16.864-12.333 3.843.398 7.166 1.949 10.065 4.696.714.676 1.353 1.229 1.422 1.229.069 0 1.333-1.206 2.81-2.679l2.686-2.679-1.642-1.57c-3.907-3.738-8.156-5.846-13.349-6.624-1.76-.264-5.609-.258-7.351.01zm80.779 8.94l-.037 5.655-2.722.039-2.722.038v7.438h5.514v26.406h7.919V23.878h6.363v-7.444h-6.36l-.037-5.654-.037-5.653-3.922-.038-3.922-.037-.037 5.656zm31.226 5.178c-6.273.657-11.24 3.922-13.864 9.116-1.242 2.458-1.754 4.522-1.865 7.514-.124 3.35.427 6.09 1.782 8.849 4.161 8.474 14.635 11.959 23.762 7.904 1.301-.578 3.422-2.027 4.666-3.188l1.06-.99-2.799-2.745-2.8-2.745-1.16.987c-2.033 1.73-4.178 2.533-6.775 2.533-4.756 0-8.419-2.722-9.611-7.143-.404-1.497-.401-3.89.005-5.4.468-1.734 1.184-2.956 2.487-4.245 1.766-1.745 3.601-2.519 6.378-2.688 3.163-.193 5.732.753 8.128 2.993l.499.466 2.797-2.782 2.798-2.782-1.034-.915c-3.267-2.894-6.511-4.314-10.841-4.747-1.625-.163-1.992-.162-3.613.008zm-70.22 11.187c.001 8.743.04 10.89.214 12.045.544 3.603 1.721 6.097 3.876 8.216 2.523 2.482 5.477 3.592 9.484 3.567 2.796-.017 5.243-.668 7.336-1.95l1.007-.617v1.95h7.919v-33.85h-7.919V26.2c0 10.685-.02 10.983-.835 12.77-1.199 2.626-4.292 4.27-7.763 4.125-1.09-.046-1.53-.13-2.148-.415-1.367-.63-2.354-1.905-2.936-3.792-.206-.666-.238-2.026-.28-11.605l-.048-10.85h-7.907v10.64zm70.079.737c-1.628.516-2.845 1.599-3.579 3.184-.506 1.092-.621 3.014-.248 4.141.544 1.64 1.579 2.798 3.171 3.547.865.407 1.027.435 2.481.43 1.36-.006 1.653-.052 2.333-.364 1.747-.803 3.09-2.55 3.417-4.444.733-4.246-3.425-7.81-7.575-6.494zM62.432 62.252c-.615.214-1.311.767-1.555 1.235-.302.58-.27 1.66.064 2.205.393.639.816.87 2.28 1.24 1.45.365 1.969.726 1.969 1.364 0 .864-.684 1.371-1.848 1.371-.476 0-.673-.088-1.065-.477-.3-.298-.48-.615-.48-.843 0-.34-.045-.365-.655-.365h-.655l.095.597c.201 1.263 1.194 2.173 2.52 2.308.969.098 1.828-.141 2.45-.685.663-.577.91-1.086.91-1.869 0-1.335-.862-2.145-2.703-2.54-1.37-.294-1.822-.602-1.822-1.238 0-.651.518-1.091 1.381-1.173.585-.056.746-.012 1.126.305.243.203.484.558.535.787.083.377.146.418.646.418.541 0 .555-.013.555-.499 0-1.603-2.002-2.747-3.748-2.14zm-34.149 4.255v4.284h1.264l.04-1.79.04-1.792 1.52-.04 1.52-.04v-1.104l-1.52-.04-1.52-.04-.041-1.229-.041-1.229h3.829v-1.264h-5.091v4.284zm7.495 0v4.284h1.272v-8.568h-1.272v4.284zm4.383 0v4.284h1.273v-1.55c0-1.248.041-1.565.212-1.63.502-.191.873.126 1.909 1.628l1.06 1.539.743.006c.408.004.742-.027.742-.07 0-.042-.477-.749-1.06-1.571l-1.062-1.495.602-.3c1.364-.68 1.766-2.802.797-4.207-.543-.787-1.006-.918-3.24-.918H40.16v4.284zm8.5-.386c-.258 2.143-.502 4.071-.543 4.284-.072.376-.056.386.58.386.43 0 .655-.06.655-.176 0-.096.16-1.408.353-2.914.194-1.506.356-2.802.36-2.88.005-.077.61 1.045 1.345 2.494l1.337 2.633h1.064l1.265-2.613c1.047-2.163 1.282-2.556 1.364-2.283.055.182.244 1.548.42 3.035l.32 2.704h.61c.337 0 .611-.064.611-.142 0-.078-.222-1.92-.495-4.092-.272-2.172-.494-4.036-.494-4.142 0-.133-.189-.192-.612-.192h-.612l-1.395 2.888c-.767 1.588-1.44 2.915-1.494 2.948-.055.034-.754-1.265-1.554-2.887l-1.454-2.949h-1.163l-.468 3.898zm23.599-3.266v.632h2.545v7.304h1.273v-7.293l1.308-.04 1.308-.041.043-.597.044-.597H72.26v.632zm8.767 3.652v4.284H82.3v-3.66l2.015.04 2.015.038.04 1.791.039 1.791h1.123v-8.568H86.4v3.652h-4.1v-3.652h-1.273v4.284zm10.327-.176l-1.662 4.284c-.05.126.126.176.619.176h.688l.367-1.018.366-1.019 1.778-.039 1.778-.04.396 1.059.396 1.057h.69c.6 0 .678-.032.592-.246-.054-.135-.8-2.063-1.658-4.284l-1.561-4.038h-1.197l-1.592 4.108zm6.642-3.476v.632h2.545v7.304h1.273v-7.293l1.308-.04 1.308-.041.043-.597.044-.597h-6.521v.632zm12.867 3.664v4.297l2.228-.05c1.966-.043 2.295-.085 2.813-.359.757-.4 1.532-1.305 1.81-2.115.278-.813.284-2.573.011-3.486-.274-.915-1.083-1.837-1.975-2.25-.649-.3-.909-.33-2.801-.332l-2.086-.001v4.296zm9.757-.012v4.284h5.232v-1.264h-3.959v-2.388h3.394v-1.124h-3.394v-2.52l1.944-.039 1.945-.04.043-.596.044-.597h-5.249v4.284zm7.919 0v4.284h4.666v-1.264h-3.393v-7.304h-1.273v4.284zm6.929 0v4.284h1.272v-8.568h-1.272v4.284zm3.749-3.624c.113.37.695 2.302 1.294 4.291l1.089 3.617h.601c.45 0 .619-.062.674-.246.789-2.655 2.406-8.017 2.458-8.155.053-.139-.095-.173-.606-.14l-.676.043-.896 3.007c-.493 1.654-.918 3.028-.944 3.053-.026.026-.46-1.327-.964-3.006l-.916-3.054-.66-.042-.659-.043.205.675zm8.412 3.624v4.284h5.389l-.043-.597-.044-.597-2.02-.039-2.021-.039.041-1.155.041-1.155 1.661-.04 1.662-.039v-1.115h-3.394v-2.52l1.945-.039 1.944-.04.043-.596.044-.597h-5.248v4.284zm7.918 0v4.284h1.273v-3.23h.425c.493 0 .623.132 1.873 1.896l.895 1.264.808.042.807.042-1.126-1.577-1.126-1.577.551-.245c.334-.149.707-.48.949-.843.342-.514.398-.736.398-1.59 0-.802-.068-1.114-.353-1.612-.57-.996-.989-1.138-3.357-1.138h-2.017v4.284zM44.115 63.625c.523.278.72 1.416.363 2.101-.265.51-.853.71-2.075.71h-.97v-2.949h1.212c.666 0 1.328.062 1.47.138zm71.509.25c.697.493 1.084 1.434 1.084 2.632 0 1.198-.387 2.139-1.084 2.633-.388.275-.659.323-2.039.364l-1.59.047v-6.088l1.59.047c1.38.041 1.651.09 2.039.364zm43.805-.3c.614.233.826 1.508.374 2.244-.305.498-.71.618-2.082.618h-.901v-2.95h1.19c.655 0 1.294.04 1.419.087zm-65.267 2.167c.32.816.581 1.527.581 1.58 0 .054-.547.098-1.217.098-.912 0-1.201-.044-1.155-.176.319-.907 1.154-3.047 1.178-3.02.018.02.293.703.613 1.518z" fill="#1D1D1F"/><circle cx="133.916" cy="33.631" r="6.726" fill="#FE3D2E"/></svg>