<svg width="154" height="49" fill="none" xmlns="http://www.w3.org/2000/svg"><path fill-rule="evenodd" clip-rule="evenodd" d="M26.024 46.333V31.36a4.568 4.568 0 00-4.572-4.564 4.568 4.568 0 00-4.571 4.564v14.973H7.14c-3.944 0-7.14-3.19-7.14-7.127v-18.48a7.124 7.124 0 013.229-5.963l14.324-9.36a7.15 7.15 0 017.825.002l14.301 9.358a7.124 7.124 0 013.226 5.96v18.483c0 3.937-3.197 7.127-7.14 7.127h-9.74zm-4.572-24.447a4.566 4.566 0 004.572-4.56 4.566 4.566 0 00-4.572-4.559 4.566 4.566 0 00-4.571 4.56 4.565 4.565 0 004.571 4.559z" fill="#FF492D"/><path fill-rule="evenodd" clip-rule="evenodd" d="M63.545 5.272c-.736 0-1.304-.23-1.703-.69-.399-.462-.598-1.027-.598-1.697 0-.545.158-.974.475-1.288.317-.314.721-.471 1.213-.471.736 0 1.304.23 1.703.69.399.462.598 1.027.598 1.697 0 .545-.158.974-.475 1.288-.317.314-.721.471-1.213.471zm-1.995 5.78c0-1.067-.143-1.858-.43-2.371-.286-.513-.858-.77-1.718-.77h-.307V6.97h3.683c.737 0 1.3.125 1.688.377.389.251.665.665.829 1.24.163.576.245 1.399.245 2.467v10.68h-3.99v-10.68zm11.736-4.869v15.55h-1.534V4.77c0-.88-.21-1.571-.63-2.074-.419-.502-1.13-.754-2.133-.754h-.153V1h2.148c1.146 0 2.082.152 2.809.456.726.303 1.335.78 1.826 1.429L86.176 15.45V1h1.535v20.828h-1.412L73.286 6.183zm24.737 15.865c-1.412 0-2.65-.335-3.713-1.006-1.064-.67-1.888-1.586-2.471-2.748-.583-1.163-.875-2.477-.875-3.943 0-1.634.292-3.026.875-4.178.583-1.152 1.386-2.026 2.41-2.623 1.022-.597 2.178-.895 3.467-.895 1.269 0 2.415.261 3.438.785a6.034 6.034 0 012.424 2.215c.594.953.89 2.047.89 3.283 0 .397-.02.848-.061 1.35l-.061.629h-9.239c0 1.99.297 3.44.89 4.35.594.912 1.423 1.367 2.487 1.367.982 0 1.805-.225 2.47-.675.665-.45 1.305-1.095 1.918-1.932l.952.722a8.205 8.205 0 01-2.225 2.356c-.89.628-2.082.943-3.576.943zm2.302-8.545c0-1.969-.225-3.367-.675-4.194-.45-.827-1.095-1.24-1.934-1.24-.777 0-1.406.423-1.887 1.272-.481.848-.721 2.235-.721 4.162h5.217zm7.397-2.922c-.491-1.172-.952-2-1.382-2.481-.429-.482-.92-.744-1.473-.786v-.597l1.473-.062c1.351 0 2.451.282 3.3.848.849.565 1.611 1.591 2.286 3.078l2.609 6 2.056-5.026-.429-.974c-.491-1.13-.952-1.947-1.381-2.45-.43-.503-.87-.775-1.32-.817v-.597l1.166-.062c1.391 0 2.558.288 3.499.863.941.576 1.739 1.597 2.394 3.063l2.823 6.315 3.745-9.927h1.626l-5.647 15.079h-1.412l-3.99-8.828-3.56 8.828h-1.381l-5.002-11.467z" fill="#FF492D" stroke="#FF492D" stroke-width=".3"/><path fill-rule="evenodd" clip-rule="evenodd" d="M62.373 30.989c0-1.068-.144-1.859-.432-2.372-.288-.513-.864-.77-1.728-.77h-.308v-.942h3.703c.74 0 1.306.125 1.697.377.39.251.668.665.833 1.24.164.577.247 1.399.247 2.467v5.183h8.331v-9.267h4.012v16.65c0 1.068.144 1.858.431 2.371.288.513.864.77 1.728.77h.309v.942h-3.703c-.74 0-1.306-.12-1.697-.361-.39-.24-.669-.65-.833-1.225-.165-.576-.247-1.409-.247-2.498v-5.968h-8.331v10.052h-4.012v-16.65zm27.525 16.963c-1.502 0-2.813-.34-3.935-1.02a6.817 6.817 0 01-2.576-2.765c-.597-1.162-.895-2.466-.895-3.911 0-1.445.298-2.749.895-3.911a6.818 6.818 0 012.576-2.765c1.122-.68 2.433-1.02 3.935-1.02 1.501 0 2.813.34 3.934 1.02a6.818 6.818 0 012.577 2.765c.596 1.162.894 2.466.894 3.91 0 1.446-.298 2.75-.894 3.912a6.818 6.818 0 01-2.577 2.764c-1.121.681-2.433 1.021-3.934 1.021zm0-1.413c1.049 0 1.851-.576 2.407-1.728.555-1.152.833-2.67.833-4.555 0-1.885-.278-3.403-.834-4.555-.555-1.152-1.357-1.728-2.406-1.728-1.05 0-1.852.576-2.407 1.728-.556 1.152-.833 2.67-.833 4.555 0 1.885.277 3.403.833 4.555.555 1.152 1.358 1.728 2.407 1.728zm10.985-9.582c0-1.068-.139-1.858-.417-2.371-.278-.514-.848-.77-1.712-.77h-.309v-.943h3.055c1.337 0 2.211.398 2.623 1.194h.123c1.132-1.005 2.428-1.508 3.888-1.508 1.008 0 1.888.194 2.638.582.751.387 1.291.79 1.62 1.209a5.625 5.625 0 011.759-1.304c.679-.324 1.553-.487 2.623-.487 3.6 0 5.4 1.927 5.4 5.78v9.3h-4.011v-9.33c0-1.446-.227-2.503-.679-3.174-.453-.67-1.049-1.005-1.79-1.005-.555 0-1.07.11-1.543.33-.473.22-.843.508-1.111.864.041.084.124.314.247.69.165.63.247 1.404.247 2.326v9.298h-4.011v-9.33c0-1.445-.227-2.502-.679-3.173-.453-.67-1.049-1.005-1.79-1.005-.432 0-.879.131-1.342.393-.463.262-.808.55-1.034.864l.093.44c.082.25.123.66.123 1.225v10.586h-4.011v-10.68zm31.258 10.995c-1.42 0-2.664-.335-3.734-1.005a6.768 6.768 0 01-2.484-2.749c-.586-1.162-.879-2.476-.879-3.942 0-1.634.293-3.026.879-4.178.586-1.152 1.394-2.026 2.422-2.623 1.029-.597 2.191-.896 3.487-.896 1.276 0 2.428.262 3.456.786a6.06 6.06 0 012.438 2.214c.596.953.895 2.048.895 3.283 0 .398-.021.848-.062 1.351l-.062.628h-9.288c0 1.99.299 3.44.895 4.351.597.911 1.43 1.367 2.5 1.367.987 0 1.815-.225 2.484-.676.668-.45 1.311-1.094 1.928-1.932l.957.723a8.232 8.232 0 01-2.237 2.356c-.895.628-2.094.942-3.595.942zm2.314-8.544c0-1.969-.226-3.367-.679-4.194-.452-.827-1.1-1.241-1.944-1.241-.782 0-1.414.424-1.898 1.272-.483.849-.725 2.236-.725 4.163h5.246zm12.219 8.544c-2.406 0-4.062-.429-4.968-1.288-.329-.314-.534-.759-.617-1.335-.082-.576-.123-1.377-.123-2.403h1.08c.185 1.09.607 1.963 1.265 2.623.658.66 1.574.99 2.746.99 2.057 0 3.086-.712 3.086-2.136 0-.545-.221-.995-.664-1.351-.442-.356-1.146-.754-2.113-1.194l-1.605-.691c-1.316-.587-2.304-1.225-2.962-1.916-.658-.691-.987-1.53-.987-2.514 0-1.319.54-2.345 1.62-3.078 1.08-.733 2.494-1.1 4.242-1.1 2.407 0 4.063.43 4.968 1.288.329.314.535.754.617 1.32.083.565.124 1.371.124 2.419h-1.08c-.185-1.09-.607-1.964-1.265-2.623-.659-.66-1.574-.99-2.747-.99-.884 0-1.542.194-1.974.581-.432.388-.648.906-.648 1.555 0 .524.18.958.54 1.304.36.345.91.686 1.651 1.02l1.851.786c1.522.65 2.618 1.304 3.286 1.964.669.66 1.003 1.523 1.003 2.591 0 1.34-.581 2.372-1.743 3.095-1.163.722-2.69 1.083-4.583 1.083z" fill="#55488D" stroke="#55488D" stroke-width=".3"/></svg>