<svg width="33" height="33" fill="none" xmlns="http://www.w3.org/2000/svg"><path opacity=".85" d="M16.483 33C7.373 32.99-.006 25.6 0 16.489.006 7.379 7.395-.003 16.506 0 25.616.003 33 7.39 33 16.5c-.005 9.117-7.4 16.504-16.517 16.5zM3.3 16.784c.078 7.262 6.008 13.097 13.27 13.058 7.263-.04 13.13-5.938 13.13-13.2 0-7.263-5.867-13.16-13.13-13.2C9.308 3.403 3.378 9.238 3.3 16.5v.284zm14.85 7.966h-3.3v-3.3h3.3v3.3zm0-6.6h-3.3v-9.9h3.3v9.9z" fill="url(#paint0_linear)"/><defs><linearGradient id="paint0_linear" x1="12" y1="-3" x2="25" y2="39" gradientUnits="userSpaceOnUse"><stop stop-color="#FFC327"/><stop offset="1" stop-color="#FF5C00" stop-opacity=".58"/></linearGradient></defs></svg>