<svg width="177" height="62" fill="none" xmlns="http://www.w3.org/2000/svg"><path fill-rule="evenodd" clip-rule="evenodd" d="M0 7.128v7.128h8.037l-.152 16.679-.152 16.679-3.866.168L0 47.951v13.062h42.388V47.952l-3.866-.169-3.867-.168-.151-16.68-.152-16.678h8.036V0H0v7.128zm44.804 13.817l.162 6.71 2.72.175 2.722.174v19.895H44.68v13.115h33.223V47.899h-6.301v-6.995c0-8.007.727-10.15 4.045-11.921 2.368-1.264 6.3-1.349 8.563-.183 2.352 1.21 2.957 3.846 2.748 11.971l-.176 6.843-3.008.172-3.007.173v13.073l16.182-.151 16.182-.152.163-5.863.164-5.863 1.867 2.437c4.102 5.354 10.793 8.819 19.593 10.148 7.292 1.1 15.938-.052 21.461-2.86 4.397-2.235 8.543-7.803 9.468-12.714l.397-2.107h-17.703l-.695 2.309c-.896 2.978-3.337 4.529-7.132 4.532-6.112.004-8.059-2.946-8.088-12.258-.023-7.408.972-10.167 4.277-11.863 2.457-1.261 6.389-1.003 8.122.534 1.597 1.417 2.761 4.267 2.761 6.765v2.03l3.867-.386c2.126-.212 6.186-.668 9.022-1.014l5.155-.628-.202-1.703c-.419-3.533-2.491-7.748-5.14-10.454-4.63-4.732-10.979-6.945-19.92-6.945-9.237 0-17.213 2.767-22.697 7.873-3.523 3.28-5.389 6.853-6.279 12.018-.66 3.83-.375 7.17 1.02 11.935.366 1.254.26 1.31-2.126 1.14l-2.51-.178-.288-11.12c-.313-12.087-.666-13.65-3.785-16.764-.91-.909-3.073-2.314-4.806-3.122-2.794-1.303-3.864-1.469-9.451-1.459-7.736.013-11.377 1.236-15.695 5.273l-2.878 2.69-.165-4.286-.165-4.285-13.05-.154-13.05-.153.161 6.71zm122.391 27.457c-1.989 1.979-2.224 2.515-2.224 5.055 0 5.575 5.529 9.182 10.57 6.895 1.431-.649 1.459-.779 1.459-6.751s-.028-6.102-1.459-6.75c-.802-.365-2.508-.663-3.791-.663-1.945 0-2.701.367-4.555 2.214z" fill="#1D1D1F"/></svg>