<svg width="189" height="93" fill="none" xmlns="http://www.w3.org/2000/svg"><path fill-rule="evenodd" clip-rule="evenodd" d="M20.586 36.569c-.502.488-.586 1.902-.586 9.917 0 10.176.015 10.25 2.117 10.25 1.884 0 1.987-.54 1.987-10.456 0-9.903-.076-10.28-2.052-10.28-.484 0-1.143.256-1.466.569zm9.782 4.064c-3.997 3.882-4.772 4.811-4.772 5.723 0 .916.79 1.848 5.009 5.903 4.323 4.157 5.127 4.781 5.875 4.565 1.14-.33 1.8-1.184 1.8-2.33 0-.706-.91-1.763-3.823-4.436l-3.825-3.509 3.824-3.773c4.03-3.975 4.53-4.958 3.142-6.177-1.431-1.257-2.25-.8-7.23 4.034zm14.4-4.164c-.388.206-.829.552-.98.768-.15.216-.276 4.483-.28 9.483-.004 8.35.05 9.138.678 9.689.716.63 1.832.772 2.526.322 1.108-.718 1.268-2.016 1.268-10.304 0-6.85-.104-8.599-.548-9.215-.68-.941-1.735-1.236-2.663-.743zm8.394.217l-.892.703 3.282 9.597c2.07 6.05 3.494 9.675 3.855 9.81.96.357 1.89.239 2.35-.299.24-.281 1.566-3.514 2.947-7.183l2.51-6.671 2.413 6.505c1.327 3.578 2.633 6.81 2.902 7.183.615.852 2.02.874 2.765.044.541-.603 6.635-17.895 6.635-18.827 0-.816-1.679-1.599-2.654-1.238-.757.28-1.223 1.312-3.115 6.887-1.223 3.606-2.339 6.437-2.478 6.29-.14-.146-1.32-3.096-2.625-6.556-1.931-5.121-2.532-6.349-3.235-6.61-1.609-.597-2.103.127-4.529 6.635-1.285 3.445-2.448 6.384-2.586 6.529-.138.145-1.23-2.626-2.429-6.158-1.198-3.532-2.284-6.525-2.414-6.653-.663-.649-1.87-.644-2.702.012zm34.697-.192l-.893.432-.1 9.372c-.089 8.337-.03 9.446.524 10.041.796.854 2.083.857 2.876.007.54-.58.617-1.8.617-9.71 0-9.314-.085-9.89-1.532-10.373-.33-.11-1.001-.006-1.492.231zm42.539-.122c-5.062.815-8.55 4.948-8.55 10.132 0 5.309 3.739 9.6 9.002 10.333 3.859.538 8.905-1.584 8.905-3.743 0-2.04-1.501-2.41-3.917-.966-2.856 1.708-6.856.956-8.61-1.617-1.945-2.853-1.433-6.83 1.165-9.043 2.079-1.773 5.54-1.956 7.697-.407 1.868 1.34 3.665.79 3.665-1.124 0-2.26-5.187-4.237-9.357-3.565zm21.265-.002c-5.26.852-8.694 4.783-8.694 9.953 0 6.076 4.276 10.316 10.403 10.316 6.053 0 10.675-4.559 10.616-10.472-.044-4.489-3.756-8.992-7.931-9.622a78.795 78.795 0 01-2.125-.344c-.308-.059-1.329.017-2.269.17zm17.063.655c-.54.578-.618 1.79-.618 9.572 0 9.656.081 10.05 2.058 10.05 1.636 0 2.044-1.184 2.061-5.968l.014-4.356 2.583 5.186 2.582 5.185 1.227-.114c1.335-.125 1.497-.37 4.962-7.54l1.488-3.08.104 4.867c.061 2.831.275 5.065.512 5.343.626.732 2.466.59 2.915-.224.236-.429.386-4.15.386-9.573 0-9.721-.1-10.175-2.192-9.94-.872.098-1.365.873-4.507 7.083-1.94 3.835-3.619 6.969-3.731 6.965-.111-.004-1.616-2.897-3.343-6.43-1.728-3.531-3.391-6.706-3.696-7.055-.719-.823-2.025-.81-2.805.029zm-11.544 4.025c1.717 1.234 2.533 3.054 2.527 5.636-.011 3.922-2.588 6.52-6.416 6.466-4.163-.058-7.078-3.948-6.107-8.148.423-1.826 1.338-3.097 3.049-4.236 1.717-1.144 5.156-1.004 6.947.282z" fill="#fff"/><path fill-rule="evenodd" clip-rule="evenodd" d="M50.302.197C30.48 1.58 12.097 12.743 4.482 28.022 1.362 34.28 0 39.904 0 46.532c0 11.334 4.636 21.857 13.428 30.482 9.106 8.932 23.214 14.94 37.198 15.84 17.282 1.112 33.607-4.15 45.545-14.68 3.792-3.344 6.961-7.48 6.961-9.086 0-1.567-1.404-3.11-2.829-3.11-1.5 0-2.704.923-5.863 4.495-13.953 15.778-40.945 20.716-62.16 11.37C19.666 76.288 10.862 66.838 7.5 55.247c-1.214-4.186-1.23-13.19-.03-17.315 3.915-13.47 15.096-24.056 30.434-28.82C45.756 6.673 55.84 5.868 63.605 7.06c12.935 1.986 23.87 7.458 30.748 15.386 3.633 4.189 4.194 4.642 5.755 4.642 2.56 0 3.979-2.79 2.537-4.986-2.441-3.719-8.444-9.347-13.284-12.456-3.099-1.99-10.65-5.515-14.143-6.603C70.938 1.71 65.582.615 62.104.363c-6.036-.438-7.577-.46-11.802-.165zm55.973 44.084c-1.172.472-2.394 2.206-2.394 3.395 0 1.321 1.56 3.196 2.866 3.445 2.26.432 4.253-1.199 4.253-3.479 0-1.642-.614-2.588-2.079-3.199-1.433-.597-1.55-.604-2.646-.162z" fill="#00A991"/></svg>