<svg width="170" height="84" fill="none" xmlns="http://www.w3.org/2000/svg"><path fill-rule="evenodd" clip-rule="evenodd" d="M45.172.178C27.372 1.427 10.863 11.509 4.024 25.31 1.223 30.962 0 36.043 0 42.029 0 52.266 4.163 61.77 12.059 69.56c8.177 8.068 20.846 13.494 33.403 14.307 15.52 1.004 30.18-3.748 40.9-13.259 3.405-3.02 6.251-6.757 6.251-8.207 0-1.416-1.26-2.81-2.54-2.81-1.347 0-2.428.834-5.265 4.061-12.53 14.251-36.769 18.71-55.82 10.27C17.66 68.904 9.754 60.37 6.735 49.9c-1.09-3.78-1.104-11.913-.027-15.639 3.516-12.165 13.557-21.728 27.33-26.03 7.051-2.203 16.107-2.93 23.08-1.854 11.616 1.793 21.436 6.736 27.611 13.897 3.263 3.783 3.767 4.192 5.17 4.192 2.297 0 3.572-2.52 2.277-4.503-2.192-3.359-7.583-8.443-11.93-11.25-2.782-1.798-9.562-4.982-12.7-5.964C63.703 1.543 58.894.555 55.77.327 50.35-.07 48.966-.09 45.172.178zM18.11 32.764c-.453.456-.528 1.774-.528 9.248 0 9.489.013 9.559 1.91 9.559 1.698 0 1.79-.505 1.79-9.752 0-9.234-.067-9.585-1.85-9.585-.436 0-1.03.239-1.322.53zm8.823 3.79c-3.605 3.62-4.304 4.486-4.304 5.336 0 .855.712 1.724 4.517 5.506 3.899 3.875 4.624 4.458 5.299 4.256 1.028-.307 1.623-1.104 1.624-2.172 0-.659-.822-1.645-3.45-4.137l-3.448-3.272 3.449-3.519c3.633-3.707 4.084-4.623 2.833-5.76-1.29-1.172-2.029-.746-6.52 3.762zm12.987-3.883c-.35.192-.748.515-.884.716-.136.202-.25 4.181-.252 8.843-.005 7.786.045 8.522.61 9.035.646.587 1.653.72 2.279.3 1-.67 1.143-1.88 1.143-9.608 0-6.389-.093-8.019-.494-8.593-.613-.877-1.564-1.152-2.402-.693zm7.57.203l-.804.655 2.96 8.949c1.866 5.641 3.15 9.022 3.476 9.147.866.334 1.704.224 2.119-.278.217-.262 1.413-3.276 2.658-6.698l2.264-6.221 2.177 6.066c1.196 3.336 2.374 6.35 2.617 6.698.554.795 1.821.816 2.494.04.488-.562 5.984-16.686 5.984-17.555 0-.76-1.515-1.49-2.394-1.154-.683.261-1.103 1.223-2.81 6.422-1.103 3.362-2.109 6.002-2.234 5.866-.126-.137-1.191-2.888-2.368-6.114-1.741-4.775-2.283-5.92-2.918-6.164-1.45-.557-1.896.118-4.084 6.187-1.159 3.213-2.208 5.953-2.332 6.088-.125.135-1.11-2.449-2.19-5.742-1.081-3.293-2.061-6.085-2.178-6.203-.599-.606-1.687-.6-2.437.01zm31.292-.18l-.805.404-.09 8.739c-.08 7.774-.028 8.808.473 9.363.718.796 1.878.799 2.593.006.487-.54.557-1.678.557-9.055 0-8.684-.077-9.22-1.382-9.672-.297-.103-.903-.006-1.346.216zm38.366-.114c-4.566.76-7.712 4.615-7.712 9.449 0 4.95 3.372 8.952 8.12 9.635 3.48.501 8.031-1.477 8.031-3.49 0-1.903-1.354-2.248-3.533-.901-2.576 1.592-6.183.892-7.765-1.508-1.754-2.66-1.292-6.368 1.05-8.432 1.875-1.653 4.997-1.824 6.942-.38 1.685 1.25 3.306.736 3.306-1.048 0-2.108-4.678-3.95-8.439-3.325zm19.179-.001c-4.745.794-7.842 4.46-7.842 9.281 0 5.666 3.857 9.62 9.383 9.62 5.459 0 9.627-4.251 9.574-9.766-.04-4.185-3.388-8.384-7.152-8.971a69.938 69.938 0 01-1.918-.321c-.277-.056-1.198.015-2.045.157zm15.388.61c-.487.54-.557 1.67-.557 8.927 0 9.004.073 9.37 1.856 9.37 1.475 0 1.844-1.103 1.859-5.564l.013-4.062 2.329 4.835 2.328 4.836 1.107-.107c1.205-.116 1.35-.345 4.475-7.03l1.342-2.872.094 4.538c.055 2.64.248 4.723.462 4.982.565.683 2.224.55 2.629-.21.213-.399.348-3.869.348-8.926 0-9.065-.09-9.488-1.977-9.268-.786.091-1.231.813-4.065 6.604-1.75 3.577-3.264 6.499-3.364 6.495-.101-.004-1.458-2.702-3.016-5.995-1.558-3.294-3.058-6.254-3.333-6.58-.648-.766-1.826-.754-2.53.027zm-10.411 3.754c1.549 1.151 2.285 2.848 2.278 5.255-.009 3.658-2.333 6.08-5.786 6.03-3.754-.055-6.383-3.682-5.507-7.598.381-1.702 1.206-2.888 2.75-3.95 1.548-1.067 4.65-.937 6.265.263zm-45.869 3.053c-1.051.426-2.149 1.992-2.149 3.066 0 1.194 1.4 2.887 2.574 3.112 2.029.39 3.819-1.083 3.819-3.142 0-1.484-.552-2.338-1.867-2.89-1.287-.54-1.392-.546-2.377-.146z" fill="#fff"/></svg>