<svg width="21" height="21" fill="none" xmlns="http://www.w3.org/2000/svg"><path d="M16.131 21h-.03a16.937 16.937 0 01-11.35-4.749A16.92 16.92 0 01.001 4.907 2.21 2.21 0 01.647 3.32L3.646.324a1.105 1.105 0 011.563 0l4.419 4.42c.431.43.431 1.13 0 1.562l-1.763 1.76a8.287 8.287 0 001.76 3.306 8.269 8.269 0 003.302 1.762l1.768-1.761a1.105 1.105 0 011.562 0l4.42 4.42c.43.431.43 1.13 0 1.562l-3 2.997a2.183 2.183 0 01-1.546.648zM4.425 2.668H4.42L2.21 4.882a14.635 14.635 0 004.101 9.806 14.641 14.641 0 009.804 4.101l2.217-2.215-2.864-2.857-1.428 1.428a1.09 1.09 0 01-1.005.3 11.268 11.268 0 01-4.972-2.51 11.27 11.27 0 01-2.509-4.972 1.105 1.105 0 01.302-1.01l1.427-1.429-2.858-2.856z" fill="#0077ED"/></svg>